<svg width="480" height="180" xmlns="http://www.w3.org/2000/svg" version="1.1" viewbox="0 0 320 120">
	<rect x="0" y="0" width="480" height="180" fill="#cb3837"></rect>
	<g fill="#ffffff">
		<g>
			<rect x="20" y="40" width="40" height="80"></rect>
			<rect x="60" y="40" width="20" height="20"></rect>
			<rect x="60" y="100" width="20" height="20"></rect>
			<rect x="80" y="40" width="20" height="80"></rect>
		</g>
		<g>
			<rect x="120" y="40" width="40" height="80"></rect>
			<rect x="160" y="40" width="20" height="20"></rect>
			<rect x="180" y="40" width="20" height="80"></rect>
		</g>
		<g>
			<rect x="220" y="40" width="40" height="80"></rect>
			<rect x="260" y="40" width="40" height="20"></rect>
			<rect x="260" y="100" width="40" height="20"></rect>
			<rect x="260" y="70" width="20" height="10"></rect>
			<rect x="280" y="60" width="20" height="20"></rect>
		</g>
		<g>
			<rect x="320" y="100" width="20" height="20"></rect>
		</g>
		<g>
			<rect x="360" y="20" width="20" height="20"></rect>
			<rect x="360" y="60" width="20" height="100"></rect>
			<rect x="340" y="140" width="20" height="20"></rect>
		</g>
		<g>
			<rect x="400" y="40" width="20" height="50"></rect>
			<rect x="400" y="100" width="20" height="20"></rect>
			<rect x="420" y="40" width="20" height="20"></rect>
			<rect x="420" y="70" width="20" height="20"></rect>
			<rect x="420" y="100" width="20" height="20"></rect>
			<rect x="440" y="40" width="20" height="20"></rect>
			<rect x="440" y="70" width="20" height="50"></rect>
		</g>
		<g>
			<rect x="0" y="0" width="340" height="20"></rect>
			<rect x="400" y="0" width="80" height="20"></rect>
			<rect x="0" y="140" width="320" height="40"></rect>
			<rect x="400" y="140" width="80" height="40"></rect>
		</g>
	</g>
</svg>